<svg xmlns="http://www.w3.org/2000/svg" width="32" height="33" viewBox="0 0 32 33" fill="none">
  <path fill-rule="evenodd" clip-rule="evenodd" d="M-0.000980377 16.2207C-0.000980377 25.0573 7.16246 32.2207 15.999 32.2207C18.6809 32.2207 21.2086 31.5609 23.4288 30.3947C23.5525 30.3297 23.6974 30.3172 23.8298 30.362C26.8134 31.3717 29.9592 32.2207 30.2212 32.2207C30.6433 32.2207 31.0653 32.0203 31.3922 31.7147C31.7538 31.3767 31.999 30.9098 31.999 30.4429C31.999 30.0922 31.1511 27.0349 30.1228 24.0928C30.0759 23.9587 30.0881 23.8113 30.1545 23.6857C31.3322 21.4571 31.999 18.9167 31.999 16.2207C31.999 7.38415 24.8356 0.220703 15.999 0.220703C7.16246 0.220703 -0.000980377 7.38415 -0.000980377 16.2207ZM9.88791 14.4429C9.33563 14.4429 8.88791 13.9952 8.88791 13.4429V12.7763C8.88791 12.224 9.33563 11.7763 9.88791 11.7763H22.1101C22.6624 11.7763 23.1101 12.224 23.1101 12.7763V13.4429C23.1101 13.9952 22.6624 14.4429 22.1101 14.4429H9.88791ZM23.1101 18.9985C23.1101 18.4462 22.6624 17.9985 22.1101 17.9985H9.88791C9.33563 17.9985 8.88791 18.4462 8.88791 18.9985V19.6651C8.88791 20.2174 9.33563 20.6651 9.88791 20.6651H22.1101C22.6624 20.6651 23.1101 20.2174 23.1101 19.6651V18.9985Z" fill="url(#paint0_linear_647_3923)"/>
  <defs>
    <linearGradient id="paint0_linear_647_3923" x1="7.98034e-07" y1="-7.69671e-08" x2="2.79582" y2="34.3752" gradientUnits="userSpaceOnUse">
      <stop stop-color="#FE346E"/>
      <stop offset="1" stop-color="#613194"/>
    </linearGradient>
  </defs>
</svg>