<svg xmlns="http://www.w3.org/2000/svg" width="25" height="25" viewBox="0 0 25 25" fill="none">
  <path fill-rule="evenodd" clip-rule="evenodd" d="M12.5 25C5.59644 25 0 19.4036 0 12.5C0 5.59644 5.59644 0 12.5 0C19.4036 0 25 5.59644 25 12.5C25 14.5889 24.4876 16.5581 23.5817 18.2888C23.5158 18.4146 23.5035 18.5621 23.5503 18.6962C24.3464 20.9804 25 23.339 25 23.6111C25 23.9759 24.8084 24.3406 24.5259 24.6047C24.2705 24.8435 23.9408 25 23.6111 25C23.4077 25 20.9806 24.3453 18.6633 23.5633C18.5308 23.5186 18.386 23.5311 18.262 23.5957C16.5378 24.4929 14.5781 25 12.5 25ZM12.5 22.9167C6.74702 22.9167 2.08332 18.253 2.08332 12.5C2.08332 6.74703 6.74702 2.08333 12.5 2.08333C18.2529 2.08333 22.9166 6.74703 22.9166 12.5C22.9166 14.4601 22.3753 16.2937 21.4339 17.8595C21.3586 17.9848 21.3373 18.1338 21.382 18.273C21.7325 19.3642 22.9167 22.9167 22.9167 22.9167C22.9167 22.9167 19.4667 21.7667 18.3816 21.3598C18.2257 21.3014 18.051 21.3175 17.9088 21.4041C16.3322 22.3639 14.4807 22.9167 12.5 22.9167Z" fill="#371958"/>
  <rect x="6.94434" y="11.1113" width="2.08333" height="11.1111" rx="1" transform="rotate(-90 6.94434 11.1113)" fill="#371958"/>
  <rect x="18.0557" y="13.8887" width="2.08333" height="11.1111" rx="1" transform="rotate(90 18.0557 13.8887)" fill="#371958"/>
</svg>