<?xml version="1.0" encoding="UTF-8"?>
<svg id="_圖層_1" data-name="圖層 1" xmlns="http://www.w3.org/2000/svg" viewBox="0 0 607.25 1080">
  <defs>
    <style>
      .cls-1 {
        stroke: #0a0a0a;
      }

      .cls-1, .cls-2 {
        fill: none;
        stroke-miterlimit: 10;
      }

      .cls-2 {
        stroke: #282628;
      }

      .cls-3 {
        fill: #f4bd0b;
      }

      .cls-3, .cls-4, .cls-5, .cls-6, .cls-7, .cls-8, .cls-9, .cls-10, .cls-11, .cls-12, .cls-13, .cls-14, .cls-15, .cls-16, .cls-17, .cls-18, .cls-19, .cls-20, .cls-21, .cls-22 {
        stroke-width: 0px;
      }

      .cls-4 {
        fill: #282628;
      }

      .cls-5 {
        fill: #538bc1;
      }

      .cls-6 {
        fill: #0a0a0a;
      }

      .cls-7 {
        fill: #070707;
      }

      .cls-8 {
        fill: #4176b5;
      }

      .cls-9 {
        fill: #21201f;
      }

      .cls-10 {
        fill: #d34654;
      }

      .cls-11 {
        fill: #d19d0d;
      }

      .cls-12 {
        fill: #adacad;
      }

      .cls-13 {
        fill: #d6a790;
      }

      .cls-14 {
        fill: #dba995;
      }

      .cls-15 {
        fill: #8a939e;
      }

      .cls-16 {
        fill: #332e2c;
      }

      .cls-17 {
        fill: #efc2a3;
      }

      .cls-18 {
        fill: #f2c4aa;
      }

      .cls-19 {
        fill: #fff;
      }

      .cls-20 {
        fill: #eae7ea;
      }

      .cls-21 {
        fill: #f26b92;
      }

      .cls-22 {
        fill: #669ff2;
      }
    </style>
  </defs>
  <circle id="hair" class="cls-16" cx="383.75" cy="199.5" r="107"/>
  <g id="hand">
    <path id="arm" class="cls-18" d="m195.52,394.99l-33.01,64.85s-3.31,21.34,19.32,29.28c20.79,7.29,28.98-6.98,33.67-20.45s30.95-55.83,30.95-55.83l-50.92-17.85Z"/>
    <path id="arm-2" data-name="arm" class="cls-18" d="m382,481.19l-4.91,70.71s1.94,29.52,25.86,31.21c25.14,1.77,30.67-9.36,32.32-23.52,1.98-17,0-72.42,0-72.42l-53.27-5.98Z"/>
    <g id="hand-2" data-name="hand">
      <path class="cls-18" d="m200.1,438.7c-25.36-19.88-45.54-63.52-46.16-80.51-.25-6.79-.91-17.68-6.18-18.23s-5.69,12.21-5.54,24.76c-5.5-4.21-23.03-45.19-29.07-41.82-8.37,4.67,15.31,37.04,18.57,46.05-7.57-3.07-31.89-48.82-39.12-45.02-8.21,4.31,29.68,49.33,27.68,50.76-2.05,1.8-29.62-37.8-35.52-33.61-4.57,3.25,27.45,38.09,25.6,39.55-2.19,1.71-21.68-17.36-24.89-11.58-3.04,5.46,14.26,17.5,29.98,29.74,7.47,5.81,18.44,16.54,22.85,24.91,9.22,17.49,18.45,34.98,27.67,52.46l34.15-37.46Z"/>
    </g>
    <path class="cls-18" d="m435.33,557.02c4.18,36.33-3.14,63.74,28.66,75.35,8.3,3.03,43.94,31.84,40.06,35.8-3.21,3.27-27.24-16.6-28.9-15.07-2.84,2.97,38.04,26.82,33.48,32.68-5.07,6.52-40.96-28.53-44.38-25.05-2.69,2.68,46.66,32.09,42.24,38.32-5.33,7.5-49.03-35.13-51.88-32.33-2.53,1.68,37.67,25.53,32.51,32.22-5.73,7.42-38.62-27.73-41.97-25.09-3.8,2.71,20.38,18.58,14.24,23.74-7.04,5.92-24.17-19.41-39.11-35.35-13.78-14.71-25.14-35.78-31.74-54.83-6.61-19.04-14.2-38.59-11.26-58.53l58.04,8.15Z"/>
  </g>
  <g id="face">
    <path class="cls-18" d="m457.53,222.53c1.24,44.65-36.21,80.89-80.89,80.89s-80.89-36.21-80.89-80.89,36.22-79.96,80.89-80.89c44.55-.92,79.32,24.36,80.89,80.89Z"/>
    <path class="cls-18" d="m305.31,213.13c-2.68,17.08-2.87,31.24-14.1,29.48s-23.61-15.81-23.61-35.05c0-15.99,11.4-26.35,22.63-24.6s17.76,13.08,15.09,30.17Z"/>
    <path class="cls-18" d="m441.42,258.65c-5.96,13.59-12.53,23.85-2.63,28.19s30.3-.02,38.46-12.48c4.93-7.52,7.72-24.34-7.12-32.46-8.96-4.91-22.74,3.17-28.7,16.76Z"/>
    <path class="cls-18" d="m323.49,282.74s-1.03,13.51-9.31,13.51h-8.27s.81,20.58,26.42,39.1c25.61,18.52,34.82,28.33,52.55,27.24s21-10.35,21-10.35c0,0-32.69-10.58-23.97-29.54,8.72-18.95,17.43-36.93,17.43-36.93l-75.85-3.04Z"/>
  </g>
  <path id="leg" class="cls-17" d="m208.55,931.38s-4.92-41.91-6.45-53.86c-3.14-24.55,12.35-23.31,25.02-22.21,12.66,1.11,36.77,9.4,36.88,28.21.11,18.8-3.88,60.4-3.88,60.4l-51.57-12.54Z"/>
  <polygon id="leg-2" data-name="leg" class="cls-17" points="357.92 927.15 337.65 861.96 369.68 845.17 394.65 845.17 408.35 914.61 363.25 933.09 357.92 927.15"/>
  <path class="cls-13" d="m207.81,924.31c13.73-8.34,29.92-8.89,42.9-1.49,2.47-3.9,7.06-6.36,11.67-6.26-.98,6.65-1.97,13.31-2.95,19.96-.46,3.09-1.16,6.57-3.81,8.23-1.85,1.16-4.25,1.09-6.3.36s-3.82-2.07-5.56-3.38c-4.07-3.07-8.14-6.14-12.22-9.21-2.02-1.53-4.15-3.1-6.65-3.52-3.71-.63-7.48,1.42-11.2.82-2.33-.37-4.47-1.83-5.67-3.87l-.22-1.65Z"/>
  <path class="cls-13" d="m357.47,924.9s10.37-2.93,19.77-7.01,14.52-11.52,19.85-11.87,9.78,1.1,9.78,1.1l2.29,9.82-47.37,17.12-3.35-.96-.97-8.19Z"/>
  <g id="shoe">
    <path class="cls-20" d="m206.38,926.1c-1.69.59-3.22,1.55-4.49,2.82-7.44,7.45-34.41,34.92-34.41,41.46,0,7.58-4.33,14.62,2.71,13.54,7.04-1.08,20.58-1.95,28.71.11,8.12,2.06,27.23,4.5,34.27.71,7.04-3.79,31.27-12.19,31.27-12.19v-16.65s-9.21-2.85-8.67-13.68c.54-10.83-16.79-19.5-26-20.58-6.98-.82-18.31,2.71-23.39,4.47Z"/>
    <path class="cls-4" d="m167.09,984.47s9.36,2.67,21.22,2.97,27.03-.55,27.03-.55c0,0-11.96-4.04-23.94-4.93s-24.31,2.52-24.31,2.52Z"/>
    <polygon class="cls-4" points="227.72 979.14 253.79 967.87 253.79 970.84 227.72 981.8 227.72 979.14"/>
    <path class="cls-2" d="m215.34,931.38s-5.93,8.44-5.47,13.79c.66,7.66,11.11,12.92,25.54,10.94,3.08-.42,9.29-3.74,14.82-2.01,6.37,1.99,5.5,6.26,5.5,6.26"/>
    <path class="cls-2" d="m208.55,931.38s-7.69,11.7-13.77,14.91c-10.24,5.41-11.84,2.53-11.84,2.53"/>
    <path class="cls-4" d="m209.94,931.6c10.46-.02,17.18,9.61,17.18,9.61,0,0-.46,3.34-4.82.71s-6.77-6.31-12.62-6.77c-5.85-.46-17.09,5.73-17.09,5.73,0,0,2.56-2.74,3.37-3.66s7.51-5.62,13.97-5.63Z"/>
    <path class="cls-4" d="m193.42,942.14s5.74-3.17,12.2-2.97c9.67.3,18.03,7.49,18.03,7.49,0,0-.27,3.72-4.63,1.08s-7.63-5.42-13.48-5.88c-5.85-.46-15.18,2.83-15.18,2.83l3.07-2.54Z"/>
    <path class="cls-20" d="m264.42,955.89s-2.53-12.96-1.69-18.62,2.34-12.17,1.69-13.85-3.58-2.73-4.42,0-4.22,3.87-4.23,11.33-.83,14.15,2.32,17.38c3.15,3.23,6.34,3.76,6.34,3.76Z"/>
    <path class="cls-2" d="m168.46,967.38l3.75,1.71c3.75,1.71,8-2.07,23.41-1.48s16.3,3.26,28.75,3.26,39.77-15.02,39.77-15.02"/>
  </g>
  <g id="shoe-2" data-name="shoe">
    <path class="cls-20" d="m357.92,927.15s.53,11.64,2.65,12.7-6.13,1.09-6.75,4.51,0,18,0,18c0,0,13.03,4.66,23.28,5.59s21.41,3.41,28.24,6.52,33.52,4.34,44.38,1.86,21.41-2.17,21.41-8.69,1.86-8.38-13.66-18.31-35.07-23.9-39.41-27.62-11.48-11.48-20.48-7.45-13.35,8.07-22.97,10.55-16.69,2.34-16.69,2.34Z"/>
    <path class="cls-12" d="m433.19,935.12c-9.62-5.59-8.23-6.98-13.71-11.37-5.16-4.13-10.86-1.25-4.81,3.71,4.66,3.83,10.52,6.73,16.85,10.26.75.42,1.68-.12,1.68-.98v-1.62Z"/>
    <path class="cls-20" d="m436.32,934.27c-9.62-5.59-15.07-10.97-20.55-15.35-5.16-4.13-10.86-1.25-4.81,3.71,5.1,4.18,14.62,11.1,20.74,14.22,5.46,2.78,8.88-.1,4.62-2.57Z"/>
    <path class="cls-1" d="m395.76,923.67s16.61,5.45,19.48,12.53-6.09,13.29-16.95,11.43-15.21-4.97-21.1-.93l-3.67,3.32"/>
    <path class="cls-1" d="m353.82,944.36s38.79,11.17,42.52,12.1,9.62,2.79,13.35,5.28,12.1,4.66,25.45,2.48,35.53-3.35,35.53-3.35"/>
    <path class="cls-6" d="m411.56,923.07c5.16,0,16.36,5.6,16.36,5.6,0,0-10.09-2.47-15.24-1.57s-11.21,6.28-15.24,3.59c-2.45-1.59,8.97-7.62,14.12-7.62Z"/>
    <path class="cls-6" d="m417.28,929.82c5.16,0,15.91,4.26,15.91,4.26,0,0-10.09-2.47-15.24-1.57s-14.58,4.91-15.24,3.59c-.74-.98,9.42-6.27,14.58-6.27Z"/>
  </g>
  <polygon class="cls-15" points="202.74 881.44 200.38 865.81 263.73 895.03 262.96 908.91 202.74 881.44"/>
  <polygon class="cls-15" points="350.79 904.22 405.9 902.19 402.98 887.36 346.52 890.48 350.79 904.22"/>
  <g id="pant">
    <path class="cls-22" d="m301.61,616.61s-11.14,49.62-10.13,73.93c1.01,24.3,19.11,85.07-.07,96.2l-19.18,11.14s18.23,19.24,7.09,51.65-12.15,52.66-12.15,52.66l-120.51-45.57v-73.93s5.06-99.24,12.15-150.89,29.37-116.46,36.46-130.64c7.09-14.18,15.84-19.98,15.84-19.98l90.49,52.39s7.09,18.43,7.09,35.55-7.09,47.49-7.09,47.49Z"/>
    <path class="cls-22" d="m350.75,560.17s36.45,96.97,40.83,136,2.94,44.82,15.23,56.38c12.29,11.57,27.47,29.64,28.91,57.11s10.84,64.34,10.84,64.34v18.07l-140.24,10.12s-.72-23.13-7.23-39.76-28.87-155.47-28.87-155.47l-4.37-74.36,35.75-99.03,49.14,26.59Z"/>
  </g>
  <g id="cother">
    <path class="cls-3" d="m309.79,299.69c-.36-1.97-2-3.45-3.99-3.64l-32.92-3.06s-11.05-2.55-24.66,14.46-3.3,72.04-4.15,86.49c-.85,14.46-9.35,41.67-19.56,56.97s-15.31,28.06-15.31,28.06c0,0-8.5,4.25,22.11,28.06,30.61,23.81,69.63,41.91,95.14,51.26l25.51,9.35s22.11-5.95,25.51-25.51,5.1-29.76,5.1-29.76c0,0,17.01-2.55,26.36-18.71,9.35-16.16,41.67-57.11,41.67-63.42s9.35-32.67-12.76-52.23-29.76-27.21-29.76-27.21l-12.84-5.1c-1.06-.42-1.99-1.11-2.7-2l-2.77-3.46c-1.34-1.67-3.66-2.18-5.57-1.21-6.52,3.31-22.51,8.99-41.6-1.83-25.87-14.66-31.57-30.74-32.82-37.52Z"/>
    <path class="cls-3" d="m249.92,304.51l-51.52,64.67s-7.32,3.06-7.32,10.1-3.17,8.45-7.04,13.03-8.8,13.03-2.11,19.02,16.2,9.51,16.2,9.51l35.95,4.74,11.97-8.1s30.64-56,30.64-59.17,1.03-23.05-5.31-35.73-21.46-18.07-21.46-18.07Z"/>
    <path class="cls-3" d="m427.28,367.84s30.68,11.48,27.28,77.11c-3.41,65.63,9.38,80.97-8.52,85.24s-13.64,7.67-41.77-13.64c-11.93-3.41-29.83,4.26-29.83,4.26,0,0,29.83-43.47,32.39-78.42,2.56-34.95,20.46-74.55,20.46-74.55Z"/>
  </g>
  <g id="hair-2" data-name="hair">
    <path class="cls-16" d="m295.76,222.53s15.68-5.57,26.51-19.64c6.86-8.91,5.9-7.67,5.9-7.67l61.23,15.25,25.73-17.32v23.21l27.9,8.53s-3.68,8.78-3.36,15.6c.25,5.3,4.98,13.67,4.98,13.67,0,0,21.83-12.73,21.85-53.2.05-93.95-119.89-109.39-160.59-53.2-22.87,31.57-10.15,74.78-10.15,74.78Z"/>
    <ellipse class="cls-16" cx="427.92" cy="327.76" rx="24.29" ry="34.91"/>
    <ellipse class="cls-16" cx="285.75" cy="288.79" rx="34.91" ry="24.29" transform="translate(-73.71 478.12) rotate(-73.08)"/>
    <ellipse class="cls-16" cx="431.25" cy="386.11" rx="19.35" ry="27.81"/>
    <ellipse class="cls-16" cx="268.89" cy="342.04" rx="27.81" ry="19.35" transform="translate(-119.78 537.55) rotate(-78.53)"/>
    <ellipse class="cls-16" cx="431.25" cy="435.43" rx="16.36" ry="23.51"/>
    <ellipse class="cls-16" cx="263.81" cy="390.43" rx="16.36" ry="23.51"/>
    <ellipse class="cls-16" cx="431.25" cy="469.16" rx="9.67" ry="13.9"/>
    <ellipse class="cls-16" cx="262.81" cy="426.25" rx="9.67" ry="13.9"/>
    <path class="cls-16" d="m263.43,438.71s-8.89,8.81-5.64,18.55c3.25,9.74,12.17,14.52,12.17,14.52,0,0,7.17-10.32,6.78-18.01-.39-7.7-13.3-15.06-13.3-15.06Z"/>
    <path class="cls-16" d="m431.98,480.84s-10.8,6.33-10.07,16.57c.73,10.24,8.18,17.09,8.18,17.09,0,0,9.51-8.21,11.04-15.77,1.53-7.55-9.15-17.89-9.15-17.89Z"/>
  </g>
  <g id="mouth">
    <path class="cls-21" d="m361.89,280.82c-9.46-2.88-13.37-9.89-13.31-13.64.11-7.29,6.32-9.14,10.73-4.91,4.81,3.72,8.4,5.78,13.25,4.56s12.99,1.16,8.48,9.56c-2.1,3.91-9.99,7.21-19.14,4.43Z"/>
    <path class="cls-19" d="m359.2,262.17c1.62,1.31,4.61,3.48,7.51,4.51s7.34-.59,9.24-.1c.98.25,2.33,5.67-3.4,6.15-3.75.31-10.6-1.38-15.04-4.63-4.02-2.94-.35-7.58,1.69-5.92Z"/>
    <path class="cls-10" d="m360.92,274.01c4.04.84,10.71,3.83,13.23,7.09-6.83,2.19-17.16-.37-22.21-6.46,0,0,4.94-1.47,8.98-.63Z"/>
  </g>
  <g id="nose">
    <path class="cls-14" d="m374.55,245.19c.76,1.98-.77,4.08-2.4,5.43s-3.58,2.67-4.04,4.74c-.41,1.85.72,3.93,2.5,4.58"/>
    <path class="cls-7" d="m373.79,245.4c.61,1.77-.76,3.41-2.02,4.51s-2.58,1.98-3.54,3.32c-1.9,2.64-.85,6.27,2.17,7.48.95.38,1.36-1.15.42-1.53-1.24-.5-2.08-1.88-2-3.22.1-1.48,1.28-2.6,2.34-3.5,2.16-1.84,5.28-4.21,4.16-7.48-.33-.96-1.86-.55-1.53.42h0Z"/>
  </g>
  <g id="eye">
    <circle class="cls-19" cx="344.76" cy="216.35" r="23.8"/>
    <circle class="cls-19" cx="411.91" cy="236.57" r="23.8"/>
    <circle class="cls-16" cx="408.91" cy="237.57" r="20.7"/>
    <circle class="cls-16" cx="346.76" cy="217.87" r="20.7"/>
    <circle class="cls-19" cx="336.1" cy="206.27" r="5.76"/>
    <circle class="cls-19" cx="425.94" cy="237.38" r="5.76"/>
    <path class="cls-16" d="m322.97,226.39c-1.02-.44-2.12-.39-3.12.08-.94.44-1.7,1.28-1.98,2.29-.19.69.87.98,1.06.29.03-.11.06-.21.1-.31-.04.09.03-.05.03-.07.02-.04.04-.08.06-.12.05-.09.1-.17.16-.25.09-.14-.06.07.04-.06.03-.04.07-.08.11-.12.29-.32.51-.48.91-.68.04-.02.08-.04.12-.06-.09.04.07-.03.07-.03.09-.03.19-.06.29-.09s.19-.04.29-.07c.13-.03-.05,0,.07-.01.05,0,.11-.01.16-.01.1,0,.2,0,.3,0,.05,0,.11,0,.16.01.04,0,.12.02.04,0,.11.02.21.04.32.07.05.01.1.03.16.05.02,0,.16.06.07.03.27.12.59.08.76-.2.14-.23.08-.64-.2-.76h0Z"/>
    <path class="cls-16" d="m321.52,233.72c0-.05,0-.1,0-.15,0-.07,0-.07,0,0,0-.02,0-.05.01-.07.02-.1.04-.2.07-.29.02-.06.03-.11.05-.17,0-.02.06-.16.02-.05.04-.09.08-.18.13-.27s.1-.17.16-.26c.03-.04.06-.08.09-.12-.07.09.04-.04.04-.05.14-.16.29-.31.45-.44.03-.02.03-.02-.01,0,.02-.02.04-.03.06-.04.04-.03.08-.06.13-.09.09-.06.19-.12.28-.17.04-.02.09-.05.14-.07.02-.01.16-.06.05-.02.09-.04.19-.07.29-.1s.19-.05.29-.07c.04,0,.15-.02.05-.01.05,0,.1-.01.15-.01.1,0,.2,0,.3,0,.06,0,.12,0,.18.01.04,0,.03,0-.02,0,.03,0,.07.01.1.02.29.05.6-.08.68-.39.07-.27-.09-.62-.39-.68-2.14-.4-4.32,1.3-4.41,3.49-.01.3.26.55.55.55.31,0,.54-.25.55-.55h0Z"/>
    <path class="cls-16" d="m428.18,255.41c.78.15,1.37.61,1.76,1.28.12.2.17.32.22.47.07.2.12.41.15.62-.02-.12,0,.05,0,.06,0,.05,0,.1,0,.16,0,.11,0,.21,0,.31,0,.02-.02.17,0,.06,0,.04-.02.09-.02.13-.02.11-.06.22-.09.33-.1.28.11.6.39.68.3.08.58-.1.68-.39.67-1.98-.72-4.39-2.78-4.78-.29-.06-.6.08-.68.39-.07.27.09.62.39.68h0Z"/>
    <path class="cls-16" d="m426.62,262.54c1.1-1.78.33-4.44-1.6-5.29-.27-.12-.59-.08-.76.2-.14.23-.08.63.2.76.73.32,1.21.92,1.43,1.63.03.09.05.18.07.28.03.12.04.2.04.25.02.21.02.42,0,.62,0,.01-.02.15-.01.1s-.02.08-.02.09c-.02.1-.05.2-.08.3-.06.19-.11.3-.24.51-.38.61.58,1.16.95.56h0Z"/>
  </g>
  <path class="cls-8" d="m299.18,607.51c6.11,22.69,3.56,47.6-7.25,68.5-2.72,5.26-5.87,10.31-7.92,15.89s-2.43,11.54-.78,17.36,4.74,11.17,6.09,17.11,1.1,12.51.49,18.71c-1.49,15.12-3.63,30.19-5.46,45.27-.16,1.34,1.27,2.5,2.5,2.5,1.49,0,2.34-1.15,2.5-2.5,1.65-13.54,3.33-27.08,4.95-40.63.77-6.45,1.43-12.99.7-19.48-.36-3.23-1.02-6.38-2.09-9.45-.95-2.72-2.12-5.35-3.17-8.02s-2.05-5.45-2.46-8.32-.09-5.7.66-8.44c1.54-5.64,4.67-10.67,7.41-15.78,5.66-10.53,9.44-21.99,11.07-33.83,1.85-13.42,1.1-27.12-2.43-40.22-.84-3.1-5.66-1.79-4.82,1.33h0Z"/>
  <path class="cls-8" d="m401.28,745.74c-14.84-14.12-35.77-21.38-56.17-19.92-5.79.41-11.53,1.5-17.04,3.31-3.04,1-1.74,5.83,1.33,4.82,18.25-5.98,38.77-3.67,55.45,5.78,4.68,2.65,9.01,5.84,12.9,9.55,2.33,2.22,5.87-1.31,3.54-3.54h0Z"/>
  <path class="cls-8" d="m432.79,803.1c-15.09,11.27-33.6,17.62-52.43,18.01-5.26.11-10.54-.23-15.74-1.07-1.33-.22-2.69.34-3.08,1.75-.33,1.19.41,2.86,1.75,3.08,19.65,3.18,39.98.07,57.83-8.74,4.99-2.46,9.74-5.38,14.19-8.71,1.08-.81,1.63-2.16.9-3.42-.62-1.06-2.33-1.71-3.42-.9h0Z"/>
  <path class="cls-8" d="m430.84,807.25c-21.09-3.17-42.18-6.34-63.28-9.5-5.93-.89-11.86-1.78-17.8-2.67-1.33-.2-2.69.33-3.08,1.75-.32,1.18.4,2.87,1.75,3.08,21.09,3.17,42.18,6.34,63.28,9.5,5.93.89,11.86,1.78,17.8,2.67,1.33.2,2.69-.33,3.08-1.75.32-1.18-.4-2.87-1.75-3.08h0Z"/>
  <path class="cls-8" d="m212.28,641.63c9.08.21,18.15.41,27.23.62l13.49.31c3.86.09,7.76.04,11.61.43,4.93.49,11.66,2.37,12.42,7.99.71,5.28-4.23,10.46-9.12,11.99-8.37,2.62-17.43-2.46-24.56-6.29-2.83-1.53-5.36,2.79-2.52,4.32,7.92,4.26,16.59,8.65,25.86,7.35,6.86-.96,13.44-6.48,15.02-13.34.79-3.44.22-7.11-1.87-10s-5.18-4.75-8.59-5.8-7.09-1.35-10.65-1.47c-4.86-.16-9.73-.22-14.59-.34-11.24-.26-22.48-.51-33.72-.77-3.22-.07-3.22,4.93,0,5h0Z"/>
  <path class="cls-8" d="m273.52,797.96c-15.45-10.22-30.9-20.44-46.34-30.65-4.36-2.89-8.73-5.77-13.09-8.66l-1.26,4.66c9.89-.99,19.82-.32,29.37,2.5s17.55,7.19,25.26,12.69c4.71,3.35,9.12,7.1,13.34,11.04,2.35,2.19,5.89-1.33,3.54-3.54-7.66-7.14-16-13.69-25.27-18.62s-18.53-7.85-28.56-9.02c-5.87-.69-11.8-.66-17.68-.06-2.44.25-3.43,3.22-1.26,4.66,15.45,10.22,30.9,20.44,46.34,30.65,4.36,2.89,8.73,5.77,13.09,8.66,2.69,1.78,5.2-2.55,2.52-4.32h0Z"/>
  <path class="cls-5" d="m169.9,865.26c-9.98-4.16-13.25-4.49-23.23-8.65,0-76.4,3.47-158.02,13.26-232.21,7.69,7.88,9.88,169.68,9.97,240.85Z"/>
  <path class="cls-8" d="m285.82,695.33c-5.36,7.03,4.73,19.55,6.35,36.53,1.9,19.89-3.99,48.45-6.54,58.48,0,0,11.07-19.78,14.52-49.51,1.96-16.9-6.9-32.97-2.49-39.6,18.3-27.53,7.55-94.38,3.93-94.39,0,0,12.36,51.55-15.76,88.48Z"/>
  <path class="cls-11" d="m408.08,400.47c-15.99,9.89-25.41,28.03-24.74,46.75.38,10.71,3.35,21.19,3.31,31.92-.03,8.28-1.86,17.25-8.07,23.2-3.74,3.58-8.98,5.95-11.28,10.85-2.07,4.42-1.8,9.92,2.46,12.91,1.11.78,2.78.2,3.42-.9.73-1.25.21-2.64-.9-3.42s-1.33-2.08-1.28-3.41c.05-1.46.62-3,1.52-4.24,2.63-3.62,7.02-5.62,10.12-8.78,6.11-6.23,8.49-15.02,8.93-23.52.52-10.04-1.96-19.88-2.91-29.82-.87-9.1-.04-18.08,3.81-26.46,3.91-8.5,10.16-15.82,18.13-20.75,2.73-1.69.22-6.02-2.52-4.32h0Z"/>
  <path class="cls-11" d="m233.47,343.61c-.26,24.4-.51,48.8-.77,73.2-.07,6.91-.14,13.82-.22,20.74-.03,3.22,4.97,3.22,5,0,.26-24.4.51-48.8.77-73.2.07-6.91.14-13.82.22-20.74.03-3.22-4.97-3.22-5,0h0Z"/>
  <path class="cls-11" d="m203.09,394c3.2-5.21,8.46-8.04,14.34-7.85s11.8,3.61,15.78,8.36c.87,1.04,2.64.9,3.54,0,1.03-1.03.87-2.5,0-3.54-7.34-8.76-20.69-13.22-30.96-6.75-2.9,1.83-5.23,4.34-7.02,7.25-1.69,2.75,2.63,5.26,4.32,2.52h0Z"/>
  <path class="cls-9" d="m381.46,117.54c-20.61,3.33-39.34,15.17-51.87,31.75-3.5,4.63-6.47,9.65-8.83,14.95-.55,1.23-.36,2.69.9,3.42,1.07.62,2.87.34,3.42-.9,7.99-17.93,23.13-32.5,41.34-39.85,5.27-2.13,10.76-3.66,16.37-4.56,1.33-.22,2.08-1.88,1.75-3.08-.39-1.42-1.74-1.96-3.08-1.75h0Z"/>
  <path class="cls-9" d="m401.26,123.69c-10.21,14.49-18.35,30.39-24.18,47.13-1.65,4.72-3.1,9.51-4.36,14.35-.82,3.12,4.01,4.44,4.82,1.33,4.4-16.81,11.13-32.94,20-47.88,2.52-4.24,5.2-8.37,8.04-12.39.78-1.1.2-2.78-.9-3.42-1.25-.73-2.64-.21-3.42.9h0Z"/>
  <path class="cls-9" d="m426.43,134.61c5.46,18.69,5.24,38.74-.61,57.31-.97,3.08,3.86,4.39,4.82,1.33,4.75-15.1,5.89-31.17,3.53-46.8-.67-4.45-1.66-8.85-2.92-13.17-.9-3.08-5.73-1.77-4.82,1.33h0Z"/>
  <path class="cls-9" d="m454.25,141.59c11.22,18.26,16.39,39.9,14.94,61.27-.41,6.06-1.39,12.05-2.9,17.93-.8,3.12,4.02,4.45,4.82,1.33,5.54-21.7,4.06-45.11-4.09-65.97-2.32-5.93-5.13-11.66-8.46-17.08-1.68-2.74-6.01-.23-4.32,2.52h0Z"/>
  <path class="cls-9" d="m289.89,262.43c-12.85,9.35-19.51,25.52-17.03,41.21.21,1.33,1.88,2.08,3.08,1.75,1.42-.39,1.96-1.74,1.75-3.08-2.1-13.28,3.87-27.65,14.73-35.56,1.09-.79,1.63-2.17.9-3.42-.63-1.08-2.32-1.7-3.42-.9h0Z"/>
  <path class="cls-9" d="m266.59,324.04c-7.5,10.21-9.91,23.79-6.61,36,.84,3.1,5.66,1.79,4.82-1.33-2.99-11.02-.64-22.96,6.1-32.14.8-1.09.18-2.79-.9-3.42-1.27-.74-2.62-.19-3.42.9h0Z"/>
  <path class="cls-9" d="m260.45,375.67c-4.7,9.57-4.3,21.21,1.3,30.34,1.68,2.74,6,.23,4.32-2.52-4.62-7.55-5.21-17.32-1.3-25.29.59-1.21.33-2.7-.9-3.42-1.1-.64-2.82-.32-3.42.9h0Z"/>
  <path class="cls-9" d="m260.82,450.53c.93,3.91,1.85,7.82,2.78,11.72.3,1.27,1.82,2.15,3.08,1.75,1.33-.43,2.07-1.71,1.75-3.08-.93-3.91-1.85-7.82-2.78-11.72-.3-1.27-1.82-2.15-3.08-1.75-1.33.43-2.07,1.71-1.75,3.08h0Z"/>
  <path class="cls-9" d="m431.9,302.02c9.2,12.24,10.81,29.52,3.64,43.13-1.5,2.84,2.82,5.37,4.32,2.52,6.15-11.68,6.83-26.04,1.87-38.27-1.43-3.53-3.23-6.85-5.52-9.9-.81-1.08-2.16-1.63-3.42-.9-1.06.62-1.71,2.33-.9,3.42h0Z"/>
  <path class="cls-9" d="m432.74,370.17c5.5,9.37,6.29,20.9,2.34,31-.49,1.26.54,2.74,1.75,3.08,1.42.39,2.58-.48,3.08-1.75,4.42-11.28,3.27-24.42-2.84-34.85-1.63-2.77-5.95-.26-4.32,2.52h0Z"/>
  <path class="cls-9" d="m433.66,422.15c5.78,6.2,7.06,16.04,3.06,23.51-1.52,2.84,2.8,5.36,4.32,2.52,5.09-9.49,3.5-21.69-3.84-29.57-2.2-2.36-5.73,1.18-3.54,3.54h0Z"/>
  <path class="cls-9" d="m430.07,489.62c1.95,5.72,1.29,11.93-1.93,17.1-1.71,2.74,2.62,5.25,4.32,2.52,3.85-6.18,4.79-14.06,2.43-20.96-.44-1.28-1.72-2.12-3.08-1.75-1.24.34-2.18,1.79-1.75,3.08h0Z"/>
  <path class="cls-13" d="m285.51,191.16c-4.38,1.32-8.22,4.28-10.49,8.27-2.51,4.43-2.97,9.94-1.24,14.72.46,1.27,1.7,2.12,3.08,1.75,1.22-.34,2.21-1.8,1.75-3.08-1.29-3.57-1.16-7.53.73-10.87,1.64-2.9,4.36-5.03,7.5-5.98s1.76-5.75-1.33-4.82h0Z"/>
  <path class="cls-13" d="m282.38,219.58c.63.06-.35-.08.01,0,.16.03.32.06.48.09.32.07.63.16.93.27.07.02.58.22.25.08s.22.11.23.11c.29.14.57.3.85.48.11.07.22.14.32.22.51.34-.23-.21.04.02.24.22.49.42.72.65.11.12.22.23.33.35.05.05.39.48.17.2s.14.21.15.22c.09.13.18.27.26.41.15.26.29.54.42.81-.22-.47-.02-.03.02.08.06.16.11.33.16.5.09.33.16.67.22,1.02-.06-.35-.03-.21,0,.06.01.17.02.35.03.52,0,.35-.01.69-.04,1.04-.02.29-.04.16,0-.04-.04.2-.07.41-.12.61-.07.3-.16.6-.26.9-.08.23-.17.4-.02.08-.09.19-.18.38-.28.56-.61,1.16-.33,2.77.9,3.42,1.16.61,2.77.34,3.42-.9,1.83-3.47,1.88-7.76-.13-11.18s-5.33-5.23-9.05-5.58c-1.31-.12-2.56,1.24-2.5,2.5.07,1.46,1.1,2.37,2.5,2.5h0Z"/>
  <path class="cls-13" d="m470.47,252.86c2.27,2.86,2.55,7.32.71,10.51-.92,1.59-2.26,2.8-3.97,3.69-.79.41-1.56.68-2.58.89-.79.17-1.9.21-2.98.1-1.35-.13-2.5,1.24-2.5,2.5,0,1.46,1.15,2.37,2.5,2.5,5.54.54,11.33-2.52,13.99-7.41,2.86-5.26,2.04-11.7-1.63-16.32-.84-1.06-2.66-.88-3.54,0-1.04,1.04-.84,2.48,0,3.54h0Z"/>
  <path class="cls-13" d="m456.75,262.39c-3.81-.22-7.78,1.5-10.16,4.48-2.56,3.2-3.46,7.55-2.22,11.49.39,1.25,1.76,2.17,3.08,1.75,1.25-.4,2.17-1.74,1.75-3.08-.12-.38-.22-.76-.3-1.16-.01-.08-.08-.63-.05-.26s-.02-.29-.02-.36c-.02-.36-.02-.73,0-1.09.01-.19,0-.41.05-.6-.09.32-.04.27.01-.03.07-.36.15-.72.26-1.07.06-.19.13-.38.19-.57.16-.5-.2.38.05-.14.15-.3.29-.59.46-.88.1-.17.21-.34.32-.5.06-.09.47-.56.08-.13.24-.27.47-.54.72-.79.12-.11.23-.22.36-.33.07-.06.59-.45.1-.1.59-.42,1.19-.78,1.84-1.09.58-.28-.49.16.12-.05.19-.06.37-.13.56-.19.31-.09.63-.17.95-.24.13-.03.26-.05.38-.07l-.28.04s.52-.05.58-.05c.39-.02.78-.02,1.17,0,1.31.08,2.56-1.2,2.5-2.5-.06-1.42-1.1-2.42-2.5-2.5h0Z"/>
  <path class="cls-13" d="m323.38,283.66c17.71,14.91,44.59,22.02,68.17,18.39-1.58,4.01-4.64,9.86-4.64,9.86-6.05,1.41-10.25,1.25-18.35,0-18.01-2.78-31.31-13.9-45.84-24.91l.66-3.35Z"/>
</svg>